# xmcd
#
# Track frame offsets: 
#        150
#        16365
#        38793
#        53044
#        66710
#        88193
#        112259
#        126053
#        141378
#        162206
#        177291
#        198231
#
# Disc length: 2775 seconds
#
# Revision: 1
# Processed by: cddbd v1.5.2PL0 Copyright (c) Steve Scherf et al.
# Submitted via: ExactAudioCopyFreeDBPlugin 1.0
#
DISCID=b00ad50c
DTITLE=Michel Jonasz - Chanson Française
DYEAR=2007
DGENRE=Jazz
TTITLE0=les copains d'abord
TTITLE1=Fernand
TTITLE2=les feuilles mortes
TTITLE3=les amoureux des bancs publics
TTITLE4=Léo
TTITLE5=la mémoire et la mer
TTITLE6=la foule
TTITLE7=l'orage
TTITLE8=avec le temps
TTITLE9=Armstrong
TTITLE10=la chansons des vieux amants
TTITLE11=chanson française
EXTD=YEAR: 2007
EXTT0=
EXTT1=
EXTT2=
EXTT3=
EXTT4=
EXTT5=
EXTT6=
EXTT7=
EXTT8=
EXTT9=
EXTT10=
EXTT11=
PLAYORDER=
